<svg xmlns="http://www.w3.org/2000/svg" xmlns:xlink="http://www.w3.org/1999/xlink" x="0px" y="0px" viewBox="0 0 146.2 152.9">
<style type="text/css">.st0{fill:#FFFFFF;}.st1{opacity:0.9;fill:url(#SVGID_1_);enable-background:new;}</style>
<linearGradient id="SVGID_1_" gradientUnits="userSpaceOnUse" x1="100.6121" y1="714.933" x2="13.952" y2="772.933" gradientTransform="matrix(1 0 0 1 -3.000000e-02 -688.57)"><stop  offset="1.000000e-02" style="stop-color:#43C8BB"/><stop  offset="0.98" style="stop-color:#20B7D2"/></linearGradient>
<path class="st0" d="M118.1,70.5c-5,0-10.1-0.7-14.9-1.9c-1.2,7.8-0.8,15.7,1.2,23.3c-13.1,1.9-25.1,8.2-34.1,17.9c-5.3-5.5-11.7-10-18.8-13.1c-3.5,10.4-9.9,19.6-18.5,26.6c12.6,2.9,21.6,14.2,21.6,27.1c0,0,0,0,0,0.1l0,0c10.4,2.6,21.3,3,31.9,1.1h0.2c0.7-15.4,13.7-27.3,29-26.6c4.6,0.2,9,1.5,13,3.9c0.6-0.6,1.1-1.3,1.7-1.9c6.7-7.5,11.8-16.3,15.1-25.7h-0.1c-11-7-15.6-20.8-11.1-33C128.9,69.8,123.5,70.5,118.1,70.5z"/><path class="st0" d="M145.3,54.4c0.3-0.2,0.6-0.4,0.9-0.5c-3-9.6-7.8-18.5-14.2-26.3c-12.2,7.3-21.5,18.8-26.1,32.3c4,0.9,8.2,1.3,12.3,1.3C127.5,61.2,136.9,58.9,145.3,54.4z"/><path class="st0" d="M0,98.9v0.2c3,9.6,7.9,18.6,14.4,26.3c12.8-6.8,22.7-18,27.7-31.7C27.9,90.2,12.9,92.1,0,98.9z"/><path class="st1" d="M131.9,27.6L131.9,27.6c-1.2,0.6-2.5,1.1-3.7,1.6c-2.9,1-5.9,1.5-8.9,1.5c-15.4,0-27.8-12.5-27.8-27.8l0,0c0-0.2,0-0.4,0-0.6l0,0C81-0.3,70.3-0.6,59.8,1.2h-0.1c-0.7,14.9-13,26.6-27.9,26.6c-5,0-10-1.4-14.3-3.9V24C10.1,31.8,4.4,41.2,0.8,51.5v0.1c8,5.1,12.8,14,12.8,23.4c0,9.8-5.2,18.9-13.6,23.9l0,0v0.2c3,9.6,7.9,18.6,14.4,26.3c12.8-6.8,22.7-18,27.7-31.7v-0.1c2.3-6.4,3.5-13.1,3.5-19.8c0-4.6-0.5-9.2-1.6-13.6c12.1-2.3,23.2-8.4,31.6-17.4c8,8.5,18.3,14.4,29.6,17l0.6,0.1c4,0.9,8.2,1.3,12.3,1.3c9.5,0,18.8-2.3,27.2-6.8c0.3-0.2,0.6-0.4,0.9-0.5C143.2,44.3,138.3,35.4,131.9,27.6z"/></svg>
