<svg version="1.1" xmlns="http://www.w3.org/2000/svg" xmlns:xlink="http://www.w3.org/1999/xlink" x="0px" y="0px" viewBox="0 0 323.3 78">
<path fill="#171727" d="M11.4,47.8v29.6H0V22.8h11.4v10c1.6-3.3,4.2-6.1,7.4-7.9C22,23,25.7,22,29.4,22c8.6,0,14.4,3.6,17.4,10.7c5.3-7.1,12-10.7,20.1-10.7c6.1,0,11.1,1.9,14.8,5.7s5.7,9.2,5.6,16.3v33.5H76v-30c0-10.1-4.1-15.1-12.4-15.1c-3.7-0.1-7.3,1.3-10.1,3.7c-2.9,2.5-4.4,6.1-4.5,10.9v30.4H37.5v-30c0-5.2-0.9-9-2.8-11.5c-1.8-2.4-4.7-3.6-8.6-3.6c-3.8,0-7.5,1.4-10.3,4C12.9,38.9,11.4,42.7,11.4,47.8z"/><path fill="#171727" d="M143.5,70c-5.4,5.4-12.2,8.2-20.4,8.2s-14.9-2.7-20.4-8.2c-5.4-5.3-8.3-12.5-8.1-20c-0.2-7.5,2.8-14.7,8.1-20c5.4-5.4,12.2-8.2,20.4-8.2s14.9,2.7,20.4,8.2c5.4,5.3,8.3,12.5,8.1,20C151.8,57.5,148.9,64.7,143.5,70zM110.9,63c6.8,6.6,17.7,6.6,24.5,0c3.2-3.3,4.8-7.6,4.8-12.9s-1.6-9.5-4.8-12.9c-6.8-6.6-17.7-6.6-24.5,0c-3.2,3.3-4.8,7.6-4.8,12.9C106,55.4,107.6,59.7,110.9,63z"/><path fill="#171727" d="M163.7,70.4c-5.1-5.2-7.6-12-7.6-20.5s2.6-15.3,7.8-20.3c4.9-5,11.7-7.7,18.7-7.6c7.2,0,13.1,3.1,17.5,9.2V12.3L211.4,0v77.4H200v-8.2c-4.2,6-10.4,9-18.4,9C174.8,78.2,168.3,75.4,163.7,70.4zM167.4,50.3c-0.2,4.8,1.6,9.4,5,12.8c3.1,3.2,7.3,4.9,11.7,4.9c4.3,0.1,8.5-1.8,11.4-5c3.2-3.5,4.9-8.1,4.7-12.8c0.1-4.8-1.5-9.4-4.7-13c-2.9-3.4-7.1-5.3-11.5-5.2c-4.5,0-8.7,1.9-11.7,5.2C169.1,40.8,167.3,45.5,167.4,50.3L167.4,50.3z"/><path fill="#171727" d="M223.5,75.9c-1.4-1.4-2.2-3.4-2.2-5.4s0.8-4,2.2-5.4s3.3-2.2,5.4-2.2c2,0,4,0.8,5.4,2.2c1.5,1.4,2.3,3.4,2.2,5.4c0,2-0.8,4-2.2,5.4c-1.4,1.5-3.4,2.3-5.4,2.3C226.8,78.2,224.9,77.4,223.5,75.9z"/><path fill="#171727" d="M223.1,75.9c-1.5-1.5-2.2-3.3-2.2-5.4s0.7-3.9,2.2-5.4s3.3-2.2,5.4-2.2c2.1,0,3.9,0.7,5.4,2.2s2.3,3.3,2.3,5.4s-0.8,3.9-2.3,5.4s-3.3,2.3-5.4,2.3C226.4,78.2,224.6,77.4,223.1,75.9z"/><path fill="#171727" d="M247,12c-1.4-1.4-2.2-3.1-2.2-5.1s0.7-3.7,2.2-5.1s3.1-2.2,5.1-2.2s3.7,0.7,5.1,2.2c1.4,1.4,2.2,3.1,2.2,5.1s-0.7,3.7-2.2,5.1c-1.4,1.4-3.1,2.2-5.1,2.2C250.2,14.2,248.5,13.5,247,12z M257.8,77.4h-11.5V22.9h11.5V77.4z"/><path fill="#171727" d="M315.1,70.1c-5.5,5.4-12.3,8.1-20.5,8.1s-15-2.7-20.5-8.1s-8.2-12.1-8.2-19.9c0-7.9,2.7-14.5,8.2-19.9s12.3-8.1,20.5-8.1s15,2.7,20.5,8.1s8.2,12.1,8.2,19.9C323.3,58,320.6,64.6,315.1,70.1zM282.3,63c3.2,3.3,7.4,5,12.3,5c5,0,9.1-1.7,12.3-5c3.2-3.3,4.9-7.6,4.9-12.9s-1.6-9.5-4.9-12.9c-3.2-3.3-7.4-5-12.3-5c-5,0-9.1,1.7-12.3,5c-3.2,3.3-4.9,7.6-4.9,12.9S279.1,59.7,282.3,63z"/></svg>
